<svg version="1.2" xmlns="http://www.w3.org/2000/svg" viewBox="0 0 40 40" width="40" height="40">
	<title>ayu-dark-allround</title>
	<defs>
		<linearGradient id="g1" x1="30" y1="30" x2="10" y2="10" gradientUnits="userSpaceOnUse">
			<stop offset="0" stop-color="#0d1017"/>
			<stop offset="1" stop-color="#1a1f29"/>
		</linearGradient>
	</defs>
	<style>
		.s0 { fill: url(#g1) }
		.s1 { fill: #e6b450 }
	</style>
	<path id="rect" class="s0" d="m2 14c0-2.2 1.8-4 4-4h28c2.2 0 4 1.8 4 4v12c0 2.2-1.8 4-4 4h-28c-2.2 0-4-1.8-4-4z"/>
	<path id="ayu" class="s1" aria-label="ayu"  d="m11.6 24.1q-0.8 0-1.4-0.3-0.6-0.3-1-0.9-0.4-0.5-0.4-1.2 0-0.9 0.5-1.4 0.4-0.5 1.4-0.7 1-0.3 2.7-0.3h0.5v-0.5q0-1-0.4-1.4-0.4-0.5-1.3-0.5-0.5 0-1.1 0.2-0.5 0.1-1.1 0.4-0.3 0.2-0.5 0.1-0.1-0.1-0.2-0.3-0.1-0.2 0-0.4 0.1-0.3 0.3-0.4 0.7-0.3 1.3-0.5 0.7-0.2 1.3-0.2 1.5 0 2.2 0.8 0.7 0.8 0.7 2.4v4.4q0 0.7-0.6 0.7-0.6 0-0.6-0.7v-0.8q-0.3 0.7-0.9 1.1-0.6 0.4-1.4 0.4zm0.2-1q0.9 0 1.5-0.6 0.6-0.7 0.6-1.8v-0.5h-0.5q-1.3 0-2 0.2-0.7 0.1-1 0.4-0.3 0.3-0.3 0.8 0 0.7 0.4 1.1 0.5 0.4 1.3 0.4zm7.2 4q-0.4 0-0.5-0.3-0.1-0.3 0-0.7l1-2.2-2.9-7.1q-0.1-0.4 0-0.7 0.2-0.2 0.6-0.2 0.4 0 0.6 0.5l2.4 6.1 2.3-6.1q0.2-0.3 0.3-0.4 0.1-0.1 0.4-0.1 0.4 0 0.5 0.2 0.1 0.3 0 0.7l-4 9.8q-0.1 0.3-0.3 0.4-0.1 0.1-0.4 0.1zm9-3q-2.7 0-2.7-3.1v-4.5q0-0.6 0.6-0.6 0.6 0 0.6 0.6v4.4q0 1.1 0.4 1.6 0.4 0.5 1.3 0.5 1 0 1.6-0.6 0.6-0.7 0.6-1.9v-4q0-0.6 0.6-0.6 0.7 0 0.7 0.6v6.9q0 0.7-0.6 0.7-0.7 0-0.7-0.7v-0.8q-0.3 0.8-1 1.2-0.6 0.3-1.4 0.3z"/>
</svg>